<mxfile host="65bd71144e">
    <diagram id="9Yg6ez4GqcSqNnpzsp8f" name="Page-1">
        <mxGraphModel dx="1431" dy="926" grid="1" gridSize="10" guides="1" tooltips="1" connect="1" arrows="1" fold="1" page="1" pageScale="1" pageWidth="850" pageHeight="1100" math="0" shadow="0">
            <root>
                <mxCell id="0"/>
                <mxCell id="1" parent="0"/>
                <mxCell id="2" value="" style="whiteSpace=wrap;html=1;aspect=fixed;" parent="1" vertex="1">
                    <mxGeometry x="115" y="200" width="610" height="610" as="geometry"/>
                </mxCell>
                <mxCell id="4" value="" style="ellipse;whiteSpace=wrap;html=1;aspect=fixed;" parent="1" vertex="1">
                    <mxGeometry x="150" y="260" width="120" height="120" as="geometry"/>
                </mxCell>
                <mxCell id="8" value="" style="ellipse;whiteSpace=wrap;html=1;aspect=fixed;" parent="1" vertex="1">
                    <mxGeometry x="365" y="260" width="120" height="120" as="geometry"/>
                </mxCell>
                <mxCell id="9" value="" style="ellipse;whiteSpace=wrap;html=1;aspect=fixed;" parent="1" vertex="1">
                    <mxGeometry x="150" y="450" width="120" height="120" as="geometry"/>
                </mxCell>
                <mxCell id="10" value="" style="ellipse;whiteSpace=wrap;html=1;aspect=fixed;" parent="1" vertex="1">
                    <mxGeometry x="580" y="260" width="120" height="120" as="geometry"/>
                </mxCell>
                <mxCell id="11" value="" style="ellipse;whiteSpace=wrap;html=1;aspect=fixed;" parent="1" vertex="1">
                    <mxGeometry x="365" y="450" width="120" height="120" as="geometry"/>
                </mxCell>
                <mxCell id="12" value="" style="ellipse;whiteSpace=wrap;html=1;aspect=fixed;" parent="1" vertex="1">
                    <mxGeometry x="580" y="450" width="120" height="120" as="geometry"/>
                </mxCell>
                <mxCell id="13" value="" style="ellipse;whiteSpace=wrap;html=1;aspect=fixed;" parent="1" vertex="1">
                    <mxGeometry x="150" y="630" width="120" height="120" as="geometry"/>
                </mxCell>
                <mxCell id="14" value="" style="ellipse;whiteSpace=wrap;html=1;aspect=fixed;" parent="1" vertex="1">
                    <mxGeometry x="365" y="630" width="120" height="120" as="geometry"/>
                </mxCell>
                <mxCell id="15" value="" style="ellipse;whiteSpace=wrap;html=1;aspect=fixed;" parent="1" vertex="1">
                    <mxGeometry x="580" y="630" width="120" height="120" as="geometry"/>
                </mxCell>
                <mxCell id="18" value="Actor" style="shape=umlActor;verticalLabelPosition=bottom;verticalAlign=top;html=1;outlineConnect=0;" parent="1" vertex="1">
                    <mxGeometry x="195" y="290" width="30" height="60" as="geometry"/>
                </mxCell>
                <mxCell id="19" value="Actor" style="shape=umlActor;verticalLabelPosition=bottom;verticalAlign=top;html=1;outlineConnect=0;" parent="1" vertex="1">
                    <mxGeometry x="410" y="290" width="30" height="60" as="geometry"/>
                </mxCell>
                <mxCell id="20" value="Actor" style="shape=umlActor;verticalLabelPosition=bottom;verticalAlign=top;html=1;outlineConnect=0;" parent="1" vertex="1">
                    <mxGeometry x="625" y="290" width="30" height="60" as="geometry"/>
                </mxCell>
                <mxCell id="22" value="Actor" style="shape=umlActor;verticalLabelPosition=bottom;verticalAlign=top;html=1;outlineConnect=0;" parent="1" vertex="1">
                    <mxGeometry x="410" y="470" width="30" height="60" as="geometry"/>
                </mxCell>
                <mxCell id="23" value="Actor" style="shape=umlActor;verticalLabelPosition=bottom;verticalAlign=top;html=1;outlineConnect=0;" parent="1" vertex="1">
                    <mxGeometry x="625" y="470" width="30" height="60" as="geometry"/>
                </mxCell>
                <mxCell id="24" value="Actor" style="shape=umlActor;verticalLabelPosition=bottom;verticalAlign=top;html=1;outlineConnect=0;" parent="1" vertex="1">
                    <mxGeometry x="195" y="480" width="30" height="60" as="geometry"/>
                </mxCell>
                <mxCell id="25" value="Actor" style="shape=umlActor;verticalLabelPosition=bottom;verticalAlign=top;html=1;outlineConnect=0;" parent="1" vertex="1">
                    <mxGeometry x="195" y="660" width="30" height="60" as="geometry"/>
                </mxCell>
                <mxCell id="26" value="Actor" style="shape=umlActor;verticalLabelPosition=bottom;verticalAlign=top;html=1;outlineConnect=0;" parent="1" vertex="1">
                    <mxGeometry x="410" y="660" width="30" height="60" as="geometry"/>
                </mxCell>
                <mxCell id="27" value="Actor" style="shape=umlActor;verticalLabelPosition=bottom;verticalAlign=top;html=1;outlineConnect=0;fontFamily=Helvetica;" parent="1" vertex="1">
                    <mxGeometry x="625" y="660" width="30" height="60" as="geometry"/>
                </mxCell>
                <mxCell id="28" value="Play Again" style="html=1;whiteSpace=wrap;container=1;recursiveResize=0;collapsible=0;fontFamily=Helvetica;" parent="1" vertex="1">
                    <mxGeometry x="345" y="830" width="160" height="70" as="geometry"/>
                </mxCell>
                <mxCell id="29" value="" style="triangle;html=1;whiteSpace=wrap;fontFamily=Helvetica;" parent="28" vertex="1">
                    <mxGeometry x="20" y="20" width="20" height="30" as="geometry"/>
                </mxCell>
                <mxCell id="30" value="Pops up at random time intervals, stays for 1s" style="label;whiteSpace=wrap;html=1;image=img/clipart/Gear_128x128.png;fontFamily=Helvetica;" parent="1" vertex="1">
                    <mxGeometry x="40" y="100" width="140" height="60" as="geometry"/>
                </mxCell>
                <mxCell id="32" value="" style="edgeStyle=elbowEdgeStyle;elbow=horizontal;endArrow=classic;html=1;curved=0;rounded=0;endSize=8;startSize=8;fontFamily=Helvetica;" parent="1" target="4" edge="1">
                    <mxGeometry width="50" height="50" relative="1" as="geometry">
                        <mxPoint x="40" y="122" as="sourcePoint"/>
                        <mxPoint x="330" y="70" as="targetPoint"/>
                        <Array as="points">
                            <mxPoint x="30" y="240"/>
                        </Array>
                    </mxGeometry>
                </mxCell>
                <mxCell id="33" value="&lt;span style=&quot;font-size: 22px;&quot;&gt;SCORE: score here, &lt;/span&gt;&lt;font style=&quot;font-size: 16px;&quot;&gt;10pts per click&lt;/font&gt;" style="label;whiteSpace=wrap;html=1;image=img/clipart/Gear_128x128.png;fontFamily=Helvetica;" parent="1" vertex="1">
                    <mxGeometry x="520" y="95" width="310" height="70" as="geometry"/>
                </mxCell>
                <mxCell id="34" value="goes away after click, if clicked within time alloted will award 10pts" style="label;whiteSpace=wrap;html=1;image=img/clipart/Gear_128x128.png;fontFamily=Helvetica;fontSize=13;" parent="1" vertex="1">
                    <mxGeometry x="180" y="100" width="185" height="60" as="geometry"/>
                </mxCell>
                <mxCell id="35" value="Highscore tracker, most likely instance based.&lt;br&gt;(stretch goal)" style="shape=ext;double=1;rounded=0;whiteSpace=wrap;html=1;fontFamily=Helvetica;fontSize=16;" parent="1" vertex="1">
                    <mxGeometry x="10" y="820" width="180" height="70" as="geometry"/>
                </mxCell>
                <mxCell id="36" value="will alternate between start! and play again" style="label;whiteSpace=wrap;html=1;image=img/clipart/Gear_128x128.png;fontFamily=Helvetica;fontSize=16;" parent="1" vertex="1">
                    <mxGeometry x="560" y="835" width="200" height="65" as="geometry"/>
                </mxCell>
                <mxCell id="37" value="" style="edgeStyle=segmentEdgeStyle;endArrow=classic;html=1;curved=0;rounded=0;endSize=8;startSize=8;fontFamily=Helvetica;fontSize=16;" parent="1" target="36" edge="1">
                    <mxGeometry width="50" height="50" relative="1" as="geometry">
                        <mxPoint x="510" y="880" as="sourcePoint"/>
                        <mxPoint x="530" y="830" as="targetPoint"/>
                        <Array as="points">
                            <mxPoint x="535" y="880"/>
                            <mxPoint x="535" y="850"/>
                        </Array>
                    </mxGeometry>
                </mxCell>
                <mxCell id="38" value="Whack a Mole" style="text;strokeColor=none;fillColor=none;html=1;fontSize=24;fontStyle=1;verticalAlign=middle;align=center;fontFamily=Helvetica;" parent="1" vertex="1">
                    <mxGeometry x="310" y="20" width="230" height="50" as="geometry"/>
                </mxCell>
                <mxCell id="39" value="stretch goal,&lt;br&gt;difficulties. (just lowers time actors are active)" style="shape=ext;double=1;rounded=0;whiteSpace=wrap;html=1;fontFamily=Helvetica;fontSize=16;" parent="1" vertex="1">
                    <mxGeometry x="10" y="890" width="140" height="100" as="geometry"/>
                </mxCell>
                <mxCell id="40" value="hard mode" style="html=1;whiteSpace=wrap;container=1;recursiveResize=0;collapsible=0;fontFamily=Helvetica;fontSize=16;" parent="1" vertex="1">
                    <mxGeometry x="150" y="925" width="150" height="45" as="geometry"/>
                </mxCell>
                <mxCell id="41" value="" style="triangle;html=1;whiteSpace=wrap;fontFamily=Helvetica;fontSize=16;" parent="40" vertex="1">
                    <mxGeometry x="10" y="7.5" width="20" height="30" as="geometry"/>
                </mxCell>
            </root>
        </mxGraphModel>
    </diagram>
</mxfile>